# AST/ASF file generated using VICON BodyLanguage
# -----------------------------------------------
:version 1.10
:name VICON
:units
  mass 1.0
  length 0.45
  angle deg
:documentation
   .ast/.asf automatically generated from VICON data using
   VICON BodyBuilder and BodyLanguage model FoxedUp or BRILLIANT.MOD
:root
   order TX TY TZ RX RY RZ
   axis XYZ
   position 0 0 0  
   orientation 0 0 0 
:bonedata
  begin
     id 1 
     name lhipjoint
     direction 0.575328 -0.747301 0.332475 
     length 2.40933 
     axis 0 0 0  XYZ
  end
  begin
     id 2 
     name lfemur
     direction 0.34202 -0.939693 0  
     length 7.31453  
     axis 0 0 20  XYZ
    dof rx ry rz
    limits (-160.0 20.0)
           (-70.0 70.0)
           (-60.0 70.0)
  end
  begin
     id 3 
     name ltibia
     direction 0.34202 -0.939693 0   
     length 7.82185   
     axis 0 0 20   XYZ
    dof rx
    limits (-10.0 170.0)
  end
  begin
     id 4 
     name lfoot
     direction 0.0795993 -0.218697 0.972541   
     length 2.19173   
     axis -90 7.62852e-016 20   XYZ
    dof rx rz
    limits (-45.0 90.0)
           (-70.0 20.0)
  end
  begin
     id 5 
     name ltoes
     direction 1.53537e-011 -4.21894e-011 1   
     length 1.10023   
     axis -90 7.62852e-016 20   XYZ
    dof rx
    limits (-90.0 20.0)
  end
  begin
     id 6 
     name rhipjoint
     direction -0.513884 -0.783789 0.348708   
     length 2.29716  
     axis 0 0 0  XYZ 
  end
  begin
     id 7 
     name rfemur
     direction -0.34202 -0.939693 0   
     length 7.59573   
     axis 0 0 -20   XYZ
    dof rx ry rz
    limits (-160.0 20.0)
           (-70.0 70.0)
           (-70.0 60.0)
  end
  begin
     id 8 
     name rtibia
     direction -0.34202 -0.939693 0   
     length 7.66402   
     axis 0 0 -20   XYZ
    dof rx
    limits (-10.0 170.0)
 end
 begin
     id 9 
     name rfoot
     direction -0.137793 -0.378584 0.915253   
     length 2.27056  
     axis -90 -7.62852e-016 -20   XYZ
    dof rx rz
    limits (-45.0 90.0)
           (-20.0 70.0)
  end
  begin
     id 10 
     name rtoes
     direction -1.53493e-011 -4.22159e-011 1   
     length 1.11766   
     axis -90 -7.62852e-016 -20   XYZ
    dof rx
    limits (-90.0 20.0)
  end
  begin
     id 11 
     name lowerback
     direction -0.00732775 0.998356 -0.05685   
     length 2.16513   
     axis 0 0 0   XYZ
    dof rx ry rz
    limits (-20.0 45.0)
           (-30.0 30.0)
           (-30.0 30.0)
  end
  begin
     id 12 
     name upperback
     direction 0.0218081 0.999627 -0.0164647   
     length 2.16755   
     axis 0 0 0   XYZ
    dof rx ry rz
    limits (-20.0 45.0)
           (-30.0 30.0)
           (-30.0 30.0)
  end
  begin
     id 13 
     name thorax
     direction 0.02365 0.999661 0.0108914   
     length 2.16932   
     axis 0 0 0   XYZ
    dof rx ry rz
    limits (-20.0 45.0)
           (-30.0 30.0)
           (-30.0 30.0)
  end
  begin
     id 14 
     name lowerneck
     direction -0.0523929 0.978385 0.200044   
     length 1.63877   
     axis 0 0 0   XYZ
    dof rx ry rz
    limits (-20.0 45.0)
           (-30.0 30.0)
           (-30.0 30.0)
  end
  begin
     id 15 
     name upperneck
     direction 0.0448674 0.981321 -0.187074   
     length 1.69014   
     axis 0 0 0   XYZ
    dof rx ry rz
    limits (-20.0 45.0)
           (-30.0 30.0)
           (-30.0 30.0)
  end
  begin
     id 16
     name head
     direction 0.0199089 0.996118 -0.0857429  
     length 1.70094  
     axis 0 0 0   XYZ
    dof rx ry rz
    limits (-20.0 45.0)
           (-30.0 30.0)
           (-30.0 30.0)
  end
  begin
     id 17 
     name lclavicle
     direction 0.940366 0.30191 -0.156722  
     length 3.37521  
     axis 0 0 0   XYZ
    dof ry rz
    limits (-20.0 10.0)
           (0.0 20.0)
  end
  begin
     id 18 
     name lhumerus
     direction 1 -4.4897e-011 -1.7911e-027   
     length 5.25287   
     axis 180 -30 -90   XYZ
    dof rx ry rz
    limits (-60.0 90.0)
           (-90.0 90.0)
           (-90.0 90.0)
  end
  begin
     id 19
     name lradius
     direction 1 -4.48951e-011 1.04424e-027   
     length 3.51014   
     axis 180 -30 -90   XYZ
    dof rx
    limits (-10.0 170.0)
  end
  begin
     id 20
     name lwrist
     direction 1 -4.48997e-011 -9.5942e-028   
     length 1.75507   
     axis 8.48502e-016 90 90   XYZ
    dof ry
    limits (-180.0 0.0)
 end
  begin
     id 21 
     name lhand
     direction 1 -4.48831e-011 -1.90777e-027   
     length 0.706179   
     axis 1.22306e-015 90 90   XYZ
    dof rx rz
    limits (-90.0 90.0)
           (-45.0 45.0)
  end
  begin
     id 22 
     name lfingers
     direction 1 -4.49108e-011 -3.85244e-027   
     length 0.569339   
     axis 2.44611e-015 90 90   XYZ
    dof rx
    limits (0.0 90.0)
  end
  begin
     id 23
     name lthumb
     direction 0.707107 -6.34953e-011 0.707107   
     length 0.817461   
     axis -90 45 -1.62303e-014   XYZ
    dof rx rz
    limits (-45.0 45.0)
           (-45.0 45.0)
  end
  begin
     id 24 
     name rclavicle
     direction -0.905329 0.382405 -0.184787   
     length 3.30787  
     axis 0 0 0   XYZ 
    dof ry rz
    limits (-10.0 20.0)
           (-20.0 0.0)
  end
  begin
     id 25 
     name rhumerus
     direction -1 -4.48953e-011 -9.15316e-029  
     length 5.28721   
     axis 180 30 90   XYZ
    dof rx ry rz
    limits (-90.0 60.0)
           (-90.0 90.0)
           (-90.0 90.0)
  end
  begin
     id 26 
     name rradius
     direction -1 -4.48987e-011 9.37824e-028   
     length 3.50544   
     axis 180 30 90   XYZ
    dof rx
    limits (-10.0 170.0)
  end
  begin
     id 27 
     name rwrist
     direction -1 -4.48967e-011 -9.58414e-028   
     length 1.75272   
     axis 8.48502e-016 -90 -90   XYZ
    dof ry
    limits (-180.0 0.0)
  end
  begin
     id 28
     name rhand
     direction -1 -4.48904e-011 -1.91266e-027   
     length 0.884996   
     axis 1.22306e-015 -90 -90   XYZ
    dof rx rz
    limits (-90.0 90.0)
           (-45.0 45.0)
  end
  begin
     id 29
     name rfingers
     direction -1 -4.4909e-011 -3.85015e-027   
     length 0.713507   
     axis 2.44611e-015 -90 -90   XYZ
    dof rx
    limits (0.0 90.0)
  end
  begin
     id 30
     name rthumb
     direction -0.707107 -6.34853e-011 0.707107   
     length 1.02446   
     axis -90 -45 1.62303e-014   XYZ
    dof rx rz
    limits (-45.0 45.0)
           (-45.0 45.0)
  end
:hierarchy
  begin
    root lhipjoint rhipjoint lowerback
    lhipjoint lfemur
    lfemur ltibia
    ltibia lfoot
    lfoot ltoes
    rhipjoint rfemur
    rfemur rtibia
    rtibia rfoot
    rfoot rtoes
    lowerback upperback
    upperback thorax
    thorax lowerneck lclavicle rclavicle
    lowerneck upperneck
    upperneck head
    lclavicle lhumerus
    lhumerus lradius
    lradius lwrist
    lwrist lhand lthumb
    lhand lfingers
    rclavicle rhumerus
    rhumerus rradius
    rradius rwrist
    rwrist rhand rthumb
    rhand rfingers
  end

#!OML:ASF F:\twosubjects\two\Thursday\Session 1\justin.ASF
:FULLY-SPECIFIED
:DEGREES
1
root 7.07738 9.40214 -18.0859 -28.7896 1.14883 1.01675
lowerback 33.5044 2.40948 -3.24125
upperback 12.9027 2.15968 1.56629
thorax -3.10699 0.91023 2.65554
lowerneck -22.0094 -4.98929 -10.6692
upperneck 12.0548 -5.42197 10.6525
head 7.91135 -2.05189 4.60718
rclavicle -1.50579e-014 -1.63003e-014
rhumerus -10.051 7.47953 -83.1246
rradius 81.8535
rwrist 1.43729
rhand -5.63494 21.2519
rfingers 7.12502
rthumb 20.1833 -7.7196
lclavicle -1.50579e-014 -1.63003e-014
lhumerus -7.28505 -11.5567 85.3868
lradius 75.4219
lwrist -8.86929
lhand -13.4756 32.3585
lfingers 7.12502
lthumb 12.6347 61.9564
rfemur -62.8823 -19.1425 1.46654
rtibia 100.825
rfoot -6.06432 -3.0501
rtoes -10.3048
lfemur -60.4325 18.743 0.615322
ltibia 95.6366
lfoot -7.27672 -17.5109
ltoes -17.6295
2
root 7.07805 9.40619 -18.0883 -28.9268 1.31398 1.03693
lowerback 33.4521 2.37316 -3.35993
upperback 12.8176 2.07289 1.45065
thorax -3.17129 0.86991 2.62548
lowerneck -22.1528 -5.03691 -11.0862
upperneck 12.5302 -5.44753 11.0143
head 8.12155 -2.04384 4.80563
rclavicle 2.6339e-015 2.78299e-015
rhumerus -10.1506 7.27358 -83.2615
rradius 82.1495
rwrist -3.06591
rhand -4.81598 20.9598
rfingers 7.12502
rthumb 20.9702 -7.92657
lclavicle 2.6339e-015 2.78299e-015
lhumerus -7.41874 -10.8632 85.3354
lradius 76.3228
lwrist -4.82538
lhand -10.8509 30.86
lfingers 7.12502
lthumb 15.1641 60.2844
rfemur -62.5948 -19.2465 1.27682
rtibia 100.769
rfoot -5.95767 -3.00366
rtoes -10.6447
lfemur -60.2508 18.4293 0.529413
ltibia 95.4853
lfoot -7.1485 -17.4808
ltoes -20.6158
3
root 7.07413 9.41218 -18.0948 -29.1145 1.43424 0.836637
lowerback 33.3382 2.35882 -3.32451
upperback 12.7962 2.0691 1.39929
thorax -3.14983 0.872023 2.55671
lowerneck -22.1034 -5.09796 -11.2864
upperneck 12.8153 -5.56086 11.3495
head 8.24078 -2.07515 4.94519
rclavicle -7.30534e-015 -5.56597e-015
rhumerus -10.1724 6.00502 -83.4225
rradius 82.7111
rwrist -5.32761
rhand -1.98541 21.8269
rfingers 7.12502
rthumb 23.6874 -6.7336
lclavicle -7.30534e-015 -5.56597e-015
lhumerus -7.50357 -10.1786 85.3914
lradius 77.5057
lwrist -0.275392
lhand -6.93128 30.8053
lfingers 7.12502
lthumb 18.9369 59.9035
rfemur -62.2478 -19.2752 1.32693
rtibia 100.7
rfoot -6.02713 -3.24918
rtoes -8.88766
lfemur -60.1231 18.1802 0.674516
ltibia 95.3934
lfoot -7.35077 -17.4867
ltoes -18.7495
4
root 7.06848 9.41063 -18.0982 -29.3079 1.4418 0.58275
lowerback 33.1976 2.40494 -3.24412
upperback 12.8596 2.15787 1.37178
thorax -3.03271 0.918116 2.46134
lowerneck -22.2155 -5.16441 -11.2963
upperneck 12.9313 -5.67266 11.4855
head 8.31799 -2.11109 4.98031
rclavicle 1.56294e-014 1.91827e-014
rhumerus -10.1827 5.1531 -83.6767
rradius 83.5738
rwrist -9.36994
rhand -1.10091 20.7758
rfingers 7.12502
rthumb 24.5355 -7.67231
lclavicle 1.56294e-014 1.91827e-014
lhumerus -7.32094 -9.62464 85.4072
lradius 78.7081
lwrist 5.16644
lhand -1.87509 31.1145
lfingers 7.12502
lthumb 23.7932 59.6613
rfemur -61.9806 -19.2193 1.51514
rtibia 100.681
rfoot -6.17036 -3.48575
rtoes -7.57304
lfemur -59.9919 18.0812 0.977056
ltibia 95.3297
lfoot -6.90761 -17.5895
ltoes -16.0978
5
root 7.06632 9.40773 -18.0994 -29.422 1.64995 0.64173
lowerback 32.605 2.46964 -3.44146
upperback 13.3161 2.21945 1.19408
thorax -2.7298 0.943587 2.57087
lowerneck -22.9759 -5.40902 -11.6331
upperneck 13.3807 -5.90398 11.7324
head 8.64658 -2.18794 5.09642
rclavicle -7.30534e-015 3.27995e-015
rhumerus -10.165 4.4198 -83.7868
rradius 84.677
rwrist -12.8525
rhand -2.80419 20.0762
rfingers 7.12502
rthumb 22.9019 -8.58378
lclavicle -7.30534e-015 3.27995e-015
lhumerus -6.93266 -9.0286 85.3754
lradius 79.9409
lwrist 11.1443
lhand 4.5557 31.5818
lfingers 7.12502
lthumb 29.9461 59.1789
rfemur -61.7968 -19.3731 1.30017
rtibia 100.697
rfoot -6.15787 -3.47264
rtoes -7.66346
lfemur -59.9305 17.9161 0.817214
ltibia 95.2813
lfoot -6.76865 -17.6226
ltoes -16.0879
6
root 7.0626 9.40686 -18.107 -29.498 1.95415 0.915379
lowerback 32.5633 2.63239 -3.91972
upperback 13.3811 2.28549 1.10596
thorax -2.64727 0.960494 2.72742
lowerneck -23.6185 -5.6503 -11.6877
upperneck 13.7164 -6.1596 11.6631
head 8.90077 -2.29682 5.04635
rclavicle 3.41661e-015 -8.44835e-016
rhumerus -10.2968 3.75081 -83.8234
rradius 86.1781
rwrist -15.889
rhand -4.38538 19.3493
rfingers 7.12502
rthumb 21.3838 -9.49072
lclavicle 3.41661e-015 -8.44835e-016
lhumerus -6.65757 -8.37002 85.4534
lradius 81.3282
lwrist 17.3482
lhand 10.8272 32.5433
lfingers 7.12502
lthumb 35.9104 58.8818
rfemur -61.6734 -19.4949 0.842514
rtibia 100.698
rfoot -6.22989 -3.51166
rtoes -7.12186
lfemur -59.879 17.7142 0.357057
ltibia 95.2182
lfoot -7.19137 -17.5989
ltoes -18.1012
7
root 7.06148 9.40255 -18.1139 -29.5983 1.99967 0.941141
lowerback 33.0297 2.79707 -4.02627
upperback 12.9241 2.4158 1.12655
thorax -2.92156 1.02846 2.54096
lowerneck -23.3935 -5.69987 -11.169
upperneck 13.6855 -6.31207 11.1287
head 8.83176 -2.40251 4.74526
rclavicle 1.41292e-014 1.52195e-014
rhumerus -10.9217 2.87658 -83.98
rradius 88.191
rwrist -19.0503
rhand -4.36583 18.1951
rfingers 7.12502
rthumb 21.4026 -10.6428
lclavicle 1.41292e-014 1.52195e-014
lhumerus -6.85695 -7.75051 85.635
lradius 82.9239
lwrist 23.3258
lhand 17.2298 33.8966
lfingers 7.12502
lthumb 41.9462 58.5046
rfemur -61.592 -19.3706 0.737441
rtibia 100.708
rfoot -6.1776 -3.61184
rtoes -6.63962
lfemur -59.819 17.6776 0.295314
ltibia 95.2174
lfoot -7.56683 -17.6175
ltoes -18.1272
8
root 7.06855 9.3937 -18.1136 -29.6903 1.96675 0.488469
lowerback 32.4741 2.75541 -3.40222
upperback 13.1092 2.59128 0.989075
thorax -2.92712 1.14616 2.19141
lowerneck -22.567 -5.82518 -11.2051
upperneck 13.3187 -6.56994 11.3148
head 8.60843 -2.53317 4.77506
rclavicle -1.2101e-014 -1.17283e-014
rhumerus -11.8279 1.63353 -84.1788
rradius 90.4448
rwrist -21.7743
rhand -4.41636 17.4213
rfingers 7.12502
rthumb 21.3541 -11.4221
lclavicle -1.2101e-014 -1.17283e-014
lhumerus -7.19521 -7.3867 85.8992
lradius 84.5925
lwrist 28.6597
lhand 20.792 33.8871
lfingers 7.12502
lthumb 45.2722 57.2787
rfemur -61.4521 -19.4137 1.07447
rtibia 100.739
rfoot -5.98942 -3.60073
rtoes -7.0498
lfemur -59.9706 17.5932 0.698361
ltibia 95.3144
lfoot -8.09999 -17.6846
ltoes -14.5903
9
root 7.07312 9.38185 -18.1147 -29.7852 2.11287 0.10105
lowerback 32.3732 2.71654 -3.04256
upperback 13.06 2.65698 1.01002
thorax -2.93524 1.19368 1.98681
lowerneck -21.4149 -6.09761 -12.6051
upperneck 12.2801 -6.89814 13.0941
head 8.23771 -2.6286 5.5761
rclavicle 6.26172e-015 -1.55052e-014
rhumerus -12.4257 0.630565 -84.3022
rradius 92.4086
rwrist -23.7134
rhand -4.51846 17.8694
rfingers 7.12502
rthumb 21.256 -10.985
lclavicle 6.26172e-015 -1.55052e-014
lhumerus -7.3907 -7.00882 86.0869
lradius 86.3173
lwrist 32.8774
lhand 23.1461 33.3776
lfingers 7.12502
lthumb 47.4539 55.8413
rfemur -61.2754 -19.6835 1.26258
rtibia 100.76
rfoot -6.01209 -3.58848
rtoes -6.84327
lfemur -60.1652 17.3389 0.946737
ltibia 95.3869
lfoot -7.34526 -17.8498
ltoes -17.066
10
root 7.07519 9.3758 -18.1182 -29.8899 2.12643 0.101539
lowerback 32.4019 2.79636 -3.17154
upperback 13.002 2.71521 0.954341
thorax -3.01884 1.22135 1.97711
lowerneck -21.2634 -6.30448 -13.4567
upperneck 12.0776 -7.13085 14.1672
head 8.2615 -2.68608 6.06354
rclavicle 9.88954e-015 3.57812e-015
rhumerus -12.979 -0.0983859 -84.5768
rradius 94.3075
rwrist -25.1482
rhand -4.28696 18.3597
rfingers 7.12502
rthumb 21.4784 -10.4696
lclavicle 9.88954e-015 3.57812e-015
lhumerus -7.5667 -6.36626 86.0704
lradius 88.0574
lwrist 35.3403
lhand 25.1102 33.0659
lfingers 7.12502
lthumb 49.2623 54.6675
rfemur -61.1814 -19.5995 1.20686
rtibia 100.743
rfoot -6.14902 -3.69405
rtoes -6.05023
lfemur -60.0697 17.3308 0.962739
ltibia 95.3917
lfoot -7.25119 -17.9002
ltoes -18.184
11
root 7.08339 9.38667 -18.1203 -29.9102 1.86509 0.127151
lowerback 32.2516 2.89582 -3.20937
upperback 12.9381 2.82707 0.874402
thorax -3.03103 1.2779 1.87431
lowerneck -22.7755 -6.30608 -12.3348
upperneck 13.678 -7.12493 12.5211
head 8.93401 -2.72281 5.31179
rclavicle -1.21756e-014 2.50469e-014
rhumerus -13.8128 -0.776238 -84.9188
rradius 96.4467
rwrist -26.3265
rhand -4.25041 18.9474
rfingers 7.12502
rthumb 21.5135 -9.87787
lclavicle -1.21756e-014 2.50469e-014
lhumerus -7.59049 -5.48228 86.1839
lradius 89.4743
lwrist 36.2581
lhand 26.2971 32.6747
lfingers 7.12502
lthumb 50.3493 53.7121
rfemur -61.1695 -19.1958 1.32786
rtibia 100.672
rfoot -6.18199 -3.78864
rtoes -6.31364
lfemur -59.8813 17.6384 1.06928
ltibia 95.3815
lfoot -7.294 -17.8647
ltoes -18.3169
